<?xml version="1.0" encoding="UTF-8"?>
<!DOCTYPE svg PUBLIC "-//W3C//DTD SVG 1.1//EN" "http://www.w3.org/Graphics/SVG/1.1/DTD/svg11.dtd">
<!-- Creator: CorelDRAW 2018 -->
<svg xmlns="http://www.w3.org/2000/svg" xml:space="preserve" width="18.6951cm" height="13.0674cm" version="1.1" style="shape-rendering:geometricPrecision; text-rendering:geometricPrecision; image-rendering:optimizeQuality; fill-rule:evenodd; clip-rule:evenodd"
viewBox="0 0 591.06 413.14"
 xmlns:xlink="http://www.w3.org/1999/xlink">
 <defs>
  <style type="text/css">
   <![CDATA[
    .fil0 {fill:black}
   ]]>
  </style>
 </defs>
 <g id="Layer_x0020_1">
  <metadata id="CorelCorpID_0Corel-Layer"/>
  <path class="fil0" d="M530.61 111.15c-24.9,-11.87 -16.16,-17.12 -66.89,-30.35 -61.11,-15.93 -92.38,-53.7 -150.94,-21.86 -23.45,12.75 -30.87,26.24 -58.81,40.56 -27.58,14.14 -90.27,25.8 -121.48,24.48 -43.05,-1.82 -58.51,28.92 -88.79,57.58 -9.45,8.94 -48.94,25.08 -21.27,61.21 4.48,-1.55 10.9,-7.03 13.33,-11.99 4.37,-8.91 0.59,-16.4 0.9,-26.24 0.45,-14.59 15.06,-20.53 25.33,-28 17.03,-12.38 40.97,-36.77 63.58,-41.9 -13.86,20.51 -29.44,34.88 -23.76,71.3 6.82,43.71 25.13,31.72 -8.25,72.02 -22.94,27.7 -17.56,27.65 -30.44,67.06 -8.99,27.5 -30.37,57.61 -28.8,68.07 9.61,0.85 28.73,-13.85 33.62,-23.11 14.06,-26.69 7.45,-48.03 45.17,-77.63l100.18 -84c31.61,-26.99 33.44,-63.23 13.42,-79.81 11.27,3.93 17.82,19.87 17.27,36.72 -0.72,22.21 -9.57,28.99 -18.04,40.56 30.6,3.29 62.71,1.51 90.39,-6.76 27.99,-8.36 47.85,-20.43 73.1,-29.01 -3.96,-6.59 -6.25,-8.1 -11.67,-12.5 -23.74,-19.22 -22.61,-29.88 -8.97,-45.75 -20.83,36.11 40.15,53.49 46.9,76.98 -12.49,3.82 -29.35,5.31 -43.73,6.86 -15.31,1.64 -34.68,3.24 -38.11,14.49 20.44,15.1 55.82,5.47 77.21,-0.85 13.39,-3.96 28.28,-4.59 27.98,-20.13 -0.15,-7.53 -9.04,-28.45 -11.69,-36.44 9.67,-5.07 20.23,-7.78 25.24,-18.34 7.64,-16.1 -2.26,-27.16 -5.13,-39.02 7.51,5.56 11.7,15.77 12.04,25.83 0.53,15.84 -5.9,19.38 -10.94,27.54l35.32 9.54c8.05,-14.27 4.94,-21.18 17.21,-33.06 -9.41,18.12 -11.94,28.7 -9.69,53.64 2.15,23.86 -3.11,43.44 25.6,40.94l36.69 -77.6c2.89,-9.54 -0.38,-20.68 2.93,-30.5 13.16,-39.05 37.17,-74 34.19,-122.79 -2.21,11.58 -10.73,33.99 -15.17,46.17 -3.66,10.04 -14.14,37.31 -22.52,44.27 6.13,-54.01 10.25,-33.55 3.94,-99.32 -3.36,18.51 -5.69,38.75 -10.77,57.43 -4.94,18.15 -10.66,36.38 -15.68,53.71zm-530.61 291.8c9.89,1.98 22.99,-8.05 28.74,-14 13.97,-14.45 10.04,-34.79 29.24,-63.98 3.66,-5.57 7.35,-7.89 10.03,-13.21 12.75,-25.32 -8.73,1.23 26.96,-42.95 7.64,-9.45 16.56,-14.89 10.79,-32.99 -12.99,-40.74 -12.34,-34.92 -3.02,-77.13 -32.31,17.33 -14.55,75.22 -31.13,97.32 -39.08,52.09 -17.55,5.99 -44.22,87.07 -7.51,22.83 -23.6,40.67 -27.38,59.87z"/>
 </g>
</svg>
