<?xml version="1.0" encoding="UTF-8"?>
<!DOCTYPE svg PUBLIC "-//W3C//DTD SVG 1.1//EN" "http://www.w3.org/Graphics/SVG/1.1/DTD/svg11.dtd">
<!-- Creator: CorelDRAW 2018 -->
<svg xmlns="http://www.w3.org/2000/svg" xml:space="preserve" width="35.8272cm" height="35.8272cm" version="1.1" style="shape-rendering:geometricPrecision; text-rendering:geometricPrecision; image-rendering:optimizeQuality; fill-rule:evenodd; clip-rule:evenodd"
viewBox="0 0 2249.33 2249.33"
 xmlns:xlink="http://www.w3.org/1999/xlink">
 <defs>
  <style type="text/css">
   <![CDATA[
    .fil0 {fill:black;fill-rule:nonzero}
   ]]>
  </style>
 </defs>
 <g id="Layer_x0020_1">
  <metadata id="CorelCorpID_0Corel-Layer"/>
  <path class="fil0" d="M2185.55 63.79l0 2121.76 -2121.76 0 0 -2121.76 2121.76 0zm-12.56 12.56l-2096.65 0 0 2096.65 2096.65 0 0 -2096.65zm76.34 -76.34l0 2249.33 -2249.33 0c0.07,-749.78 0.07,-1499.56 0,-2249.33l2249.33 0zm-12.56 12.56l-2224.22 0 0 2224.22 2224.22 0 0 -2224.22zm-645.29 700.72c-49.45,-23.56 -32.1,-34 -132.84,-60.26 -121.34,-31.63 -183.45,-106.63 -299.73,-43.41 -46.57,25.32 -61.29,52.1 -116.79,80.55 -54.77,28.07 -179.26,51.24 -241.24,48.62 -85.5,-3.61 -116.19,57.42 -176.33,114.35 -18.76,17.76 -97.18,49.8 -42.24,121.55 8.89,-3.08 21.65,-13.97 26.47,-23.8 8.68,-17.7 1.18,-32.57 1.79,-52.1 0.9,-28.98 29.9,-40.78 50.31,-55.61 33.83,-24.59 81.36,-73.01 126.26,-83.21 -27.53,40.73 -58.46,69.27 -47.18,141.6 13.53,86.79 49.9,63 -16.38,143.02 -45.56,55.01 -34.87,54.9 -60.45,133.16 -17.85,54.61 -60.3,114.4 -57.2,135.18 19.09,1.69 57.06,-27.5 66.75,-45.9 27.92,-53.01 14.8,-95.38 89.71,-154.16l198.94 -166.8c62.77,-53.59 66.4,-125.55 26.65,-158.48 22.38,7.81 35.39,39.45 34.3,72.91 -1.43,44.11 -19,57.58 -35.82,80.54 60.77,6.53 124.53,3 179.5,-13.42 55.58,-16.6 95.02,-40.57 145.16,-57.61 -7.87,-13.08 -12.4,-16.09 -23.18,-24.82 -47.14,-38.17 -44.9,-59.33 -17.82,-90.84 -41.37,71.72 79.74,106.21 93.14,152.87 -24.8,7.59 -58.29,10.55 -86.85,13.62 -30.41,3.26 -68.86,6.44 -75.67,28.77 40.59,30 110.85,10.87 153.31,-1.69 26.59,-7.87 56.16,-9.11 55.56,-39.98 -0.29,-14.95 -17.96,-56.49 -23.21,-72.37 19.21,-10.06 40.17,-15.45 50.12,-36.42 15.17,-31.96 -4.49,-53.92 -10.19,-77.49 14.91,11.05 23.24,31.32 23.91,51.3 1.06,31.46 -11.72,38.49 -21.73,54.7l70.14 18.94c15.98,-28.33 9.82,-42.05 34.18,-65.66 -18.69,35.98 -23.71,56.99 -19.25,106.51 4.27,47.38 -6.17,86.26 50.84,81.3l72.86 -154.1c5.74,-18.95 -0.75,-41.06 5.83,-60.56 26.14,-77.55 73.81,-146.96 67.89,-243.84 -4.39,22.99 -21.32,67.49 -30.13,91.69 -7.26,19.94 -28.08,74.09 -44.73,87.9 12.17,-107.26 20.36,-66.63 7.83,-197.23 -6.67,36.76 -11.29,76.95 -21.38,114.05 -9.8,36.05 -21.16,72.24 -31.14,106.66zm-1053.69 579.46c19.63,3.94 45.65,-15.99 57.07,-27.8 27.74,-28.7 19.94,-69.08 58.06,-127.05 7.27,-11.06 14.59,-15.66 19.91,-26.23 25.32,-50.27 -17.34,2.44 53.54,-85.29 15.17,-18.77 32.88,-29.57 21.42,-65.51 -25.79,-80.91 -24.5,-69.34 -5.99,-153.16 -64.15,34.41 -28.9,149.37 -61.82,193.25 -77.61,103.44 -34.84,11.89 -87.8,172.9 -14.91,45.34 -46.86,80.76 -54.38,118.89zm1191.08 456.2l109.81 -131.77c-10.81,-16.38 -21.53,-32.68 -32.16,-48.89 -10.63,-16.21 -20.31,-30.94 -29.02,-44.18 -10.11,-15.34 -19.7,-30.15 -28.76,-44.45 -3.49,-4.88 -8.02,-9.93 -13.6,-15.16 -5.58,-5.23 -12.38,-7.84 -20.39,-7.84l-3.66 -6.8c3.49,-2.79 7.67,-5.23 12.55,-7.32 4.18,-1.74 9.15,-3.4 14.9,-4.97 5.75,-1.57 12.29,-2.35 19.61,-2.35 9.06,0 16.99,1.22 23.79,3.66 6.8,2.44 12.98,5.93 18.56,10.46 5.58,4.53 10.63,9.76 15.16,15.69 4.53,5.93 9.24,12.2 14.12,18.82 4.53,7.32 9.76,15.51 15.69,24.58 4.88,7.67 10.54,16.47 16.99,26.41 6.45,9.93 13.51,20.48 21.18,31.63 5.93,-7.67 12.2,-15.69 18.82,-24.05 6.62,-8.37 12.72,-15.86 18.3,-22.48 3.49,-4.53 7.23,-9.59 11.24,-15.16 4.01,-5.58 7.67,-11.07 10.98,-16.47 3.31,-5.4 6.01,-10.46 8.1,-15.16 2.09,-4.71 3.14,-8.63 3.14,-11.76 0,-3.83 -0.87,-6.88 -2.61,-9.15 -1.74,-2.27 -3.66,-4.1 -5.75,-5.49 -2.44,-1.39 -5.05,-2.27 -7.84,-2.61l3.66 -4.71c9.06,-1.74 17.08,-2.09 24.05,-1.05 5.93,0.7 11.42,2.79 16.47,6.27 5.05,3.49 7.58,9.24 7.58,17.26 0,9.41 -5.14,21.35 -15.43,35.82 -10.28,14.47 -23.27,31.64 -38.95,51.5 -5.58,6.97 -11.42,14.2 -17.52,21.7 -6.1,7.49 -11.94,14.55 -17.52,21.18 7.32,11.15 14.73,22.22 22.22,33.2 7.5,10.98 14.64,21.53 21.44,31.63 6.8,10.11 13.25,19.52 19.35,28.24 6.1,8.71 11.42,16.21 15.95,22.48 7.32,9.76 14.12,16.21 20.39,19.35 6.27,3.14 13.42,4.53 21.44,4.18l3.14 7.84c-3.83,2.79 -8.02,5.05 -12.55,6.8 -3.83,1.74 -8.71,3.31 -14.64,4.71 -5.93,1.39 -12.38,2.09 -19.35,2.09 -17.43,0 -32.77,-3.92 -46.01,-11.76 -13.25,-7.84 -25.27,-20.13 -36.08,-36.86l-41.31 -62.75 -86.8 107.71 -38.69 0zm-272.96 -231.11c3.14,-4.53 6.54,-9.41 10.2,-14.64 3.66,-5.23 7.06,-10.46 10.2,-15.69 3.14,-5.23 5.66,-10.2 7.58,-14.9 1.92,-4.71 2.88,-8.63 2.88,-11.76 -0.35,-3.83 -1.39,-6.88 -3.14,-9.15 -1.74,-2.27 -3.66,-4.1 -5.75,-5.49 -2.44,-1.39 -5.05,-2.27 -7.84,-2.61l3.66 -4.18c8.71,-1.74 16.56,-2.09 23.53,-1.05 5.93,0.7 11.42,2.61 16.47,5.75 5.05,3.14 7.93,8.71 8.63,16.73 0,4.88 -1.31,10.28 -3.92,16.21 -2.61,5.93 -6.19,12.55 -10.72,19.87 -4.53,7.32 -9.93,15.25 -16.21,23.79 -6.27,8.54 -12.9,17.86 -19.87,27.97 -9.76,13.25 -19.26,25.8 -28.5,37.65 -9.24,11.85 -16.82,21.79 -22.75,29.8l0 132.81 -66.93 0 0 -127.06 -83.14 -142.22c-3.14,-5.58 -7.41,-10.89 -12.81,-15.95 -5.4,-5.05 -12.11,-7.58 -20.13,-7.58l-3.14 -6.8c3.14,-2.44 6.62,-4.71 10.46,-6.8 3.49,-1.74 7.84,-3.4 13.07,-4.97 5.23,-1.57 11.68,-2.35 19.35,-2.35 8.37,0 15.43,0.78 21.18,2.35 5.75,1.57 10.98,3.92 15.69,7.06 4.71,3.14 9.06,7.15 13.07,12.03 4.01,4.88 8.28,10.81 12.81,17.78l65.36 112.42c3.49,-4.53 7.32,-9.67 11.5,-15.43 4.18,-5.75 8.54,-11.68 13.07,-17.78 4.53,-6.1 9.06,-12.29 13.6,-18.56 4.53,-6.27 8.71,-12.03 12.55,-17.26zm-681.86 -70.07c3.49,-2.09 7.15,-4.01 10.98,-5.75 3.49,-1.74 7.49,-3.22 12.03,-4.45 4.53,-1.22 9.59,-1.83 15.16,-1.83 10.02,0 17.95,1.31 23.7,3.92 5.75,2.61 10.02,6.36 12.81,11.24 7.58,-3.83 16.82,-7.41 27.63,-10.72 10.81,-3.31 23.44,-4.97 38.08,-4.97 16.99,0 32.16,2.18 45.4,6.54 13.16,4.36 24.31,10.2 33.38,17.52 9.06,7.23 15.95,15.69 20.83,25.27 4.88,9.59 7.32,19.61 7.32,30.07 0,12.11 -2.09,23.01 -6.27,32.59 -4.18,9.59 -9.85,18.13 -16.91,25.62 -7.15,7.41 -15.6,13.94 -25.36,19.52 -9.67,5.58 -20.31,10.28 -31.81,14.12 5.23,4.88 11.15,10.55 17.78,16.99 6.62,6.54 13.51,13.33 20.83,20.48 7.32,7.15 14.73,14.47 22.22,21.96 7.41,7.58 14.64,14.81 21.61,21.79 7.32,7.32 14.12,13.07 20.39,17.34 6.28,4.18 12.46,7.5 18.56,9.93 6.1,2.44 12.46,4.01 19.09,4.71 6.62,0.7 13.77,1.05 21.44,1.05l0.52 7.84c-3.49,5.58 -7.67,10.28 -12.55,14.12 -4.18,3.83 -9.41,7.15 -15.69,9.93 -6.27,2.79 -13.6,4.18 -21.96,4.18 -14.99,0 -29.02,-3.31 -42.01,-9.93 -13.07,-6.62 -25.36,-14.99 -36.78,-25.1 -11.5,-10.11 -22.22,-21 -32.33,-32.68 -10.11,-11.68 -19.35,-22.57 -27.89,-32.68 -8.54,-10.11 -16.38,-18.48 -23.44,-25.1 -7.15,-6.62 -13.86,-9.93 -20.13,-9.93l-15.6 0 0 127.58 -61.18 0 0 -278.7c0,-5.23 -1.83,-9.15 -5.49,-11.76 -3.66,-2.61 -8.45,-3.92 -14.38,-3.92l0 -6.8zm81.05 29.72l0 115.12c34.16,-2.09 60.74,-10.02 79.74,-23.7 19,-13.68 28.5,-31.98 28.5,-54.9 0,-15.69 -6.01,-28.32 -18.04,-38.08 -12.03,-9.67 -27.63,-14.55 -46.8,-14.55 -9.06,0 -17.17,0.61 -24.31,1.83 -7.15,1.22 -13.68,2.7 -19.61,4.44 0,1.74 0.09,3.4 0.26,4.88 0.17,1.57 0.26,3.22 0.26,4.97zm-449.17 248.98c13.94,0 26.84,-3.14 38.69,-9.41 11.85,-6.28 22.22,-15.69 31.11,-28.06 8.89,-12.38 15.86,-27.8 20.92,-46.1 5.05,-18.3 7.58,-39.56 7.58,-63.62 0,-15.77 -3.14,-30.68 -9.41,-44.79 -6.27,-14.2 -14.55,-26.67 -24.84,-37.47 -10.28,-10.81 -21.96,-19.43 -35.03,-25.71 -13.07,-6.27 -26.23,-9.41 -39.48,-9.41 -11.85,0 -23.53,3.4 -35.03,10.2 -11.5,6.8 -21.87,16.38 -31.11,28.58 -9.24,12.2 -16.65,26.75 -22.22,43.75 -5.58,16.91 -8.37,35.56 -8.37,55.77 0,18.21 3.14,34.95 9.41,50.28 6.27,15.43 14.55,28.76 24.84,40.09 10.28,11.33 21.79,20.22 34.51,26.49 12.72,6.27 25.53,9.41 38.43,9.41zm1.57 -290.72c23.36,0 45.32,3.31 65.88,9.93 20.57,6.62 38.61,15.95 54.12,27.89 15.51,12.03 27.71,26.58 36.6,43.57 8.89,17.08 13.33,36.25 13.33,57.43 0,29.63 -5.32,55.51 -15.95,77.82 -10.63,22.22 -24.58,40.79 -41.83,55.6 -17.26,14.81 -36.86,25.88 -58.82,33.38 -21.96,7.49 -44.1,11.24 -66.41,11.24 -22.31,0 -43.66,-3.31 -64.05,-9.93 -20.39,-6.62 -38.43,-16.38 -54.12,-29.19 -15.69,-12.9 -28.15,-28.67 -37.39,-47.23 -9.24,-18.65 -13.86,-40 -13.86,-63.97 0,-24.05 4.79,-46.19 14.38,-66.58 9.59,-20.39 22.66,-37.91 39.22,-52.72 16.56,-14.81 35.9,-26.32 58.04,-34.68 22.14,-8.37 45.75,-12.55 70.85,-12.55z"/>
 </g>
</svg>
