<?xml version="1.0" encoding="UTF-8"?>
<!DOCTYPE svg PUBLIC "-//W3C//DTD SVG 1.1//EN" "http://www.w3.org/Graphics/SVG/1.1/DTD/svg11.dtd">
<!-- Creator: CorelDRAW 2018 -->
<svg xmlns="http://www.w3.org/2000/svg" xml:space="preserve" width="28.659cm" height="5.12199cm" version="1.1" style="shape-rendering:geometricPrecision; text-rendering:geometricPrecision; image-rendering:optimizeQuality; fill-rule:evenodd; clip-rule:evenodd"
viewBox="0 0 1412.8 252.5"
 xmlns:xlink="http://www.w3.org/1999/xlink">
 <defs>
  <style type="text/css">
   <![CDATA[
    .fil0 {fill:black;fill-rule:nonzero}
   ]]>
  </style>
 </defs>
 <g id="Layer_x0020_1">
  <metadata id="CorelCorpID_0Corel-Layer"/>
  <path class="fil0" d="M1180.83 246.34l86.22 -103.46c-8.49,-12.86 -16.9,-25.66 -25.25,-38.39 -8.35,-12.73 -15.94,-24.29 -22.79,-34.69 -7.94,-12.04 -15.46,-23.68 -22.58,-34.9 -2.74,-3.83 -6.3,-7.8 -10.67,-11.91 -4.38,-4.11 -9.72,-6.16 -16.01,-6.16l-2.87 -5.34c2.74,-2.19 6.02,-4.11 9.85,-5.75 3.28,-1.37 7.19,-2.67 11.7,-3.9 4.52,-1.23 9.65,-1.85 15.4,-1.85 7.12,0 13.34,0.96 18.68,2.87 5.34,1.92 10.2,4.65 14.58,8.21 4.38,3.56 8.35,7.66 11.91,12.32 3.56,4.65 7.25,9.58 11.08,14.78 3.56,5.75 7.66,12.18 12.32,19.3 3.83,6.02 8.28,12.93 13.34,20.73 5.06,7.8 10.61,16.08 16.63,24.84 4.65,-6.02 9.58,-12.32 14.78,-18.89 5.2,-6.57 9.99,-12.45 14.37,-17.65 2.74,-3.56 5.68,-7.53 8.83,-11.91 3.15,-4.38 6.02,-8.69 8.62,-12.93 2.6,-4.24 4.72,-8.21 6.36,-11.91 1.64,-3.7 2.46,-6.77 2.46,-9.24 0,-3.01 -0.68,-5.41 -2.05,-7.19 -1.37,-1.78 -2.87,-3.22 -4.52,-4.31 -1.92,-1.09 -3.97,-1.78 -6.16,-2.05l2.87 -3.7c7.12,-1.37 13.41,-1.64 18.89,-0.82 4.65,0.55 8.96,2.19 12.93,4.93 3.97,2.74 5.95,7.25 5.95,13.55 0,7.39 -4.04,16.76 -12.11,28.12 -8.07,11.36 -18.27,24.84 -30.59,40.44 -4.38,5.47 -8.96,11.15 -13.75,17.04 -4.79,5.88 -9.37,11.43 -13.75,16.63 5.75,8.76 11.56,17.45 17.45,26.07 5.89,8.62 11.5,16.9 16.83,24.84 5.34,7.94 10.4,15.33 15.19,22.17 4.79,6.84 8.96,12.73 12.52,17.65 5.75,7.66 11.09,12.73 16.01,15.19 4.93,2.46 10.54,3.56 16.83,3.28l2.46 6.16c-3.01,2.19 -6.3,3.97 -9.85,5.34 -3.01,1.37 -6.84,2.6 -11.5,3.7 -4.65,1.09 -9.72,1.64 -15.19,1.64 -13.69,0 -25.73,-3.08 -36.13,-9.24 -10.4,-6.16 -19.84,-15.81 -28.33,-28.95l-32.44 -49.27 -68.15 84.58 -30.38 0zm-214.33 -181.47c2.46,-3.56 5.13,-7.39 8.01,-11.5 2.87,-4.11 5.54,-8.21 8.01,-12.32 2.46,-4.11 4.45,-8.01 5.95,-11.7 1.51,-3.7 2.26,-6.77 2.26,-9.24 -0.27,-3.01 -1.09,-5.41 -2.46,-7.19 -1.37,-1.78 -2.87,-3.22 -4.52,-4.31 -1.92,-1.09 -3.97,-1.78 -6.16,-2.05l2.87 -3.28c6.84,-1.37 13,-1.64 18.48,-0.82 4.65,0.55 8.96,2.05 12.93,4.52 3.97,2.46 6.23,6.84 6.77,13.14 0,3.83 -1.03,8.07 -3.08,12.73 -2.05,4.65 -4.86,9.85 -8.42,15.6 -3.56,5.75 -7.8,11.97 -12.73,18.68 -4.93,6.71 -10.13,14.03 -15.6,21.97 -7.66,10.4 -15.12,20.25 -22.38,29.56 -7.25,9.31 -13.21,17.11 -17.86,23.4l0 104.28 -52.55 0 0 -99.77 -65.28 -111.67c-2.46,-4.38 -5.82,-8.55 -10.06,-12.52 -4.24,-3.97 -9.51,-5.95 -15.81,-5.95l-2.46 -5.34c2.46,-1.92 5.2,-3.69 8.21,-5.34 2.74,-1.37 6.16,-2.67 10.26,-3.9 4.11,-1.23 9.17,-1.85 15.19,-1.85 6.57,0 12.11,0.62 16.63,1.85 4.52,1.23 8.62,3.08 12.32,5.54 3.7,2.46 7.12,5.61 10.26,9.44 3.15,3.83 6.5,8.49 10.06,13.96l51.32 88.27c2.74,-3.56 5.75,-7.6 9.03,-12.11 3.28,-4.52 6.71,-9.17 10.26,-13.96 3.56,-4.79 7.12,-9.65 10.67,-14.58 3.56,-4.93 6.84,-9.44 9.85,-13.55zm-535.39 -55.02c2.74,-1.64 5.61,-3.15 8.62,-4.52 2.74,-1.37 5.88,-2.53 9.44,-3.49 3.56,-0.96 7.53,-1.44 11.91,-1.44 7.87,0 14.1,1.03 18.61,3.08 4.52,2.05 7.87,5 10.06,8.83 5.95,-3.01 13.21,-5.82 21.69,-8.42 8.49,-2.6 18.41,-3.9 29.9,-3.9 13.34,0 25.25,1.71 35.65,5.13 10.33,3.42 19.09,8.01 26.21,13.75 7.12,5.68 12.52,12.32 16.35,19.84 3.83,7.53 5.75,15.4 5.75,23.61 0,9.51 -1.64,18.06 -4.93,25.59 -3.28,7.53 -7.73,14.23 -13.28,20.12 -5.61,5.82 -12.25,10.95 -19.91,15.33 -7.6,4.38 -15.94,8.07 -24.98,11.09 4.11,3.83 8.76,8.28 13.96,13.34 5.2,5.13 10.61,10.47 16.35,16.08 5.75,5.61 11.56,11.36 17.45,17.24 5.82,5.95 11.5,11.63 16.97,17.11 5.75,5.75 11.09,10.26 16.01,13.62 4.93,3.28 9.79,5.89 14.58,7.8 4.79,1.92 9.79,3.15 14.99,3.7 5.2,0.55 10.81,0.82 16.83,0.82l0.41 6.16c-2.74,4.38 -6.02,8.07 -9.85,11.09 -3.28,3.01 -7.39,5.61 -12.32,7.8 -4.93,2.19 -10.67,3.28 -17.24,3.28 -11.77,0 -22.79,-2.6 -32.98,-7.8 -10.26,-5.2 -19.91,-11.77 -28.88,-19.71 -9.03,-7.94 -17.45,-16.49 -25.39,-25.66 -7.94,-9.17 -15.19,-17.72 -21.9,-25.66 -6.71,-7.94 -12.86,-14.51 -18.41,-19.71 -5.61,-5.2 -10.88,-7.8 -15.81,-7.8l-12.25 0 0 100.18 -48.04 0 0 -218.83c0,-4.11 -1.44,-7.19 -4.31,-9.24 -2.87,-2.05 -6.64,-3.08 -11.29,-3.08l0 -5.34zm63.64 23.33l0 90.39c26.82,-1.64 47.69,-7.87 62.61,-18.61 14.92,-10.74 22.38,-25.11 22.38,-43.11 0,-12.32 -4.72,-22.24 -14.16,-29.9 -9.44,-7.6 -21.69,-11.43 -36.75,-11.43 -7.12,0 -13.48,0.48 -19.09,1.44 -5.61,0.96 -10.74,2.12 -15.4,3.49 0,1.37 0.07,2.67 0.21,3.83 0.14,1.23 0.21,2.53 0.21,3.9zm-352.69 195.5c10.95,0 21.08,-2.46 30.38,-7.39 9.31,-4.93 17.45,-12.32 24.43,-22.03 6.98,-9.72 12.45,-21.83 16.42,-36.2 3.97,-14.37 5.95,-31.07 5.95,-49.95 0,-12.39 -2.46,-24.09 -7.39,-35.17 -4.93,-11.15 -11.43,-20.94 -19.5,-29.42 -8.07,-8.49 -17.24,-15.26 -27.51,-20.19 -10.26,-4.93 -20.6,-7.39 -31,-7.39 -9.31,0 -18.48,2.67 -27.51,8.01 -9.03,5.34 -17.18,12.86 -24.43,22.44 -7.25,9.58 -13.07,21.01 -17.45,34.35 -4.38,13.28 -6.57,27.92 -6.57,43.79 0,14.3 2.46,27.44 7.39,39.48 4.93,12.11 11.43,22.58 19.5,31.48 8.07,8.9 17.11,15.88 27.1,20.8 9.99,4.93 20.05,7.39 30.18,7.39zm1.23 -228.28c18.34,0 35.58,2.6 51.73,7.8 16.15,5.2 30.31,12.52 42.49,21.9 12.18,9.44 21.76,20.87 28.74,34.21 6.98,13.41 10.47,28.47 10.47,45.09 0,23.27 -4.17,43.59 -12.52,61.11 -8.35,17.45 -19.3,32.02 -32.85,43.66 -13.55,11.63 -28.95,20.32 -46.19,26.21 -17.24,5.88 -34.62,8.83 -52.14,8.83 -17.52,0 -34.28,-2.6 -50.29,-7.8 -16.01,-5.2 -30.18,-12.86 -42.49,-22.92 -12.32,-10.13 -22.1,-22.51 -29.36,-37.09 -7.25,-14.64 -10.88,-31.41 -10.88,-50.23 0,-18.89 3.76,-36.27 11.29,-52.28 7.53,-16.01 17.79,-29.77 30.79,-41.4 13,-11.63 28.19,-20.67 45.57,-27.23 17.38,-6.57 35.92,-9.85 55.63,-9.85z"/>
 </g>
</svg>
